<?xml version="1.0" encoding="utf-8"?>
<?xml-stylesheet type="text/xsl" href="rss1.xsl"?>
<rss version="2.0" xmlns:atom="http://www.w3.org/2005/Atom" xmlns:content="http://purl.org/rss/1.0/modules/content/" xmlns:dc="http://purl.org/dc/elements/1.1/" xmlns:media="http://search.yahoo.com/mrss/">
<channel>
 <title>Getty</title>
 <link>http://www.gettyimg.com/</link>
 <atom:link href="http://www.gettyimg.com/" rel="self" type="application/rss+xml" />

 
                <item>
                <title><![CDATA[【Requests】[REQ AUD] - BRONSON (Qobuz 24bits - 44.1kHz)]]></title>
                <link><![CDATA[https://sharemania.us/threads/bronson-qobuz-24bits-44-1khz.245099/]]></link>
                <description><![CDATA[<article>
<blockquote class="messageText SelectQuoteContainer ugc baseHtml">
hi guys can you upload this please? THANK YOU <br>
LINK: <a href="https://www.qobuz.com/us-en/album/bronson-bronson/r66w5tqgercua" target="_blank" class="externalLink" rel="nofollow">https://www.qobuz.com/us-en/album/bronson-bronson/r66w5tqgercua</a>
<div class="messageTextEndMarker">&nbsp;</div>
</blockquote>
</article>]]></description>
                <author><![CDATA[negrogay]]></author>
                </item>

                
                <item>
                <title><![CDATA[【Requests】[REQ AUD] - BRONSON (Qobuz 24bits - 44.1kHz)]]></title>
                <link><![CDATA[https://sharemania.us/threads/bronson-qobuz-24bits-44-1khz.245098/]]></link>
                <description><![CDATA[<article>
<blockquote class="messageText SelectQuoteContainer ugc baseHtml">
hi guys can you upload this please? THANK YOU
<div class="messageTextEndMarker">&nbsp;</div>
</blockquote>
</article>]]></description>
                <author><![CDATA[negrogay]]></author>
                </item>

                
                <item>
                <title><![CDATA[【Apple Music】WEB-RiP - Ana Mena - La Razón 'A.M WEB-DL.4K.AAC2.0-fstambuk']]></title>
                <link><![CDATA[https://sharemania.us/threads/ana-mena-la-raz%C3%B3n-a-m-web-dl-4k-aac2-0-fstambuk.245100/]]></link>
                <description><![CDATA[<article>
<blockquote class="messageText SelectQuoteContainer ugc baseHtml">
<div style="text-align: center"><img src="https://i.ibb.co/fkGkKC4/Ana-Mena-La-Raz-n-A-M-WEB-DL-4-K-AAC2-0-fstambuk-VTM.gif" class="bbCodeImage LbImage" alt="[​IMG]" data-url="https://i.ibb.co/fkGkKC4/Ana-Mena-La-Raz-n-A-M-WEB-DL-4-K-AAC2-0-fstambuk-VTM.gif" style=""><br>
​</div>
<div class="ToggleTriggerAnchor bbCodeSpoilerContainer">
<button type="button" class="button bbCodeSpoilerButton ToggleTrigger Tooltip JsOnly" data-target="> .SpoilerTarget"><span>Spoiler: <span class="SpoilerTitle">Apple Music</span></span></button>
<div class="SpoilerTarget bbCodeSpoilerText">
<div class="bbCodeBlock bbCodeCode">
<div class="type">Code:</div>
<pre>General
Complete name                            : Ana Mena - La Razón 'A.M WEB-DL.4K.AAC2.0-fstambuk'.m4v
Format                                   : MPEG-4
Format profile                           : Base Media
Codec ID                                 : isom (isom/iso2/mp41)
File size                                : 448 MiB
Duration                                 : 3 min 6 s
Overall bit rate                         : 20.2 Mb/s
Frame rate                               : 25.000 FPS
Movie name                               : La Razón
Performer                                : Ana Mena &amp; GALE
Genre                                    : Pop in Spanish
ContentType                              : Music Video
Recorded date                            : 2024-05-05 07:00:00 UTC
Copyright                                : ℗ (C) 2024 Sony Music Entertainment España, S.L.
Cover                                    : Yes
Rating                                   : None
GenreID                                  : 1845
AlbumTitleID                             : 406682065
AppleStoreCatalogID                      : 1744166991

Video
ID                                       : 1
Format                                   : HEVC
Format/Info                              : High Efficiency Video Coding
Format profile                           : Main 10@L5@High
Codec ID                                 : hvc1
Codec ID/Info                            : High Efficiency Video Coding
Duration                                 : 3 min 6 s
Bit rate                                 : 19.9 Mb/s
Width                                    : 3 102 pixels
Height                                   : 2 160 pixels
Display aspect ratio                     : 1.436
Frame rate mode                          : Constant
Frame rate                               : 25.000 FPS
Color space                              : YUV
Chroma subsampling                       : 4:2:0
Bit depth                                : 10 bits
Scan type                                : Progressive
Bits/(Pixel*Frame)                       : 0.119
Stream size                              : 442 MiB (99%)
Title                                    : Core Media Video
Color range                              : Limited
Color primaries                          : BT.709
Transfer characteristics                 : BT.709
Matrix coefficients                      : BT.709
Codec configuration box                  : hvcC

Audio
ID                                       : 2
Format                                   : AAC LC
Format/Info                              : Advanced Audio Codec Low Complexity
Codec ID                                 : 2 / 40 / mp4a-40-2
Duration                                 : 3 min 6 s
Bit rate mode                            : Constant
Bit rate                                 : 254 kb/s
Channel(s)                               : 2 channels
Channel layout                           : L R
Sampling rate                            : 48.0 kHz
Frame rate                               : 46.875 FPS (1024 SPF)
Compression mode                         : Lossy
Stream size                              : 5.64 MiB (1%)
Title                                    : Core Media Audio
Default                                  : Yes
Alternate group                          : 1

</pre>
</div><div style="text-align: center">​</div></div>
</div><div style="text-align: center"><br>
<div class="bbCodeBlock bbCodeVfcHH HiddenContent">
<div class="attribution type">Hidden Content:</div>
<blockquote>You must reply before you can see the hidden data contained here.</blockquote>
</div></div>
<div class="messageTextEndMarker">&nbsp;</div>
</blockquote>
</article>]]></description>
                <author><![CDATA[fstambuk]]></author>
                </item>

                </channel></rss>